<svg width="20" height="20" viewBox="0 0 20 20" fill="none" xmlns="http://www.w3.org/2000/svg">
<path d="M9.50006 15.1343L15.6634 8.97093C14.6265 8.53778 13.6848 7.90526 12.8917 7.10926C12.0953 6.31597 11.4625 5.37397 11.0292 4.33676L4.86589 10.5001C4.38506 10.9809 4.14422 11.2218 3.93756 11.4868C3.69372 11.7997 3.48444 12.138 3.31339 12.4959C3.16922 12.7993 3.06172 13.1226 2.84672 13.7676L1.71172 17.1701C1.65948 17.3259 1.65173 17.4932 1.68934 17.6531C1.72695 17.8131 1.80843 17.9593 1.92462 18.0755C2.0408 18.1917 2.18709 18.2732 2.34705 18.3108C2.507 18.3484 2.67427 18.3407 2.83006 18.2884L6.23256 17.1534C6.87839 16.9384 7.20089 16.8309 7.50422 16.6868C7.86367 16.5156 8.20006 16.3076 8.51339 16.0626C8.77839 15.8559 9.01922 15.6151 9.50006 15.1343ZM17.3734 7.26093C17.9879 6.6464 18.3332 5.81292 18.3332 4.94384C18.3332 4.07477 17.9879 3.24129 17.3734 2.62676C16.7589 2.01223 15.9254 1.66699 15.0563 1.66699C14.1872 1.66699 13.3538 2.01223 12.7392 2.62676L12.0001 3.36593L12.0317 3.45843C12.3959 4.50074 12.992 5.44675 13.7751 6.22509C14.5767 7.03161 15.5558 7.63946 16.6342 8.00009L17.3734 7.26093Z" fill="#006FFD"/>
</svg>
