<svg width="60" height="60" viewBox="0 0 60 60" fill="none" xmlns="http://www.w3.org/2000/svg">
<path fill-rule="evenodd" clip-rule="evenodd" d="M53.9644 8.25932H34.9706V3.78369L3.75 8.60244V50.8406L34.9706 56.2181V49.5843H53.9644C54.5399 49.6145 55.1038 49.415 55.5323 49.0297C55.9609 48.6444 56.219 48.1048 56.25 47.5293V10.3124C56.2185 9.73733 55.9602 9.19818 55.5317 8.81328C55.1032 8.42838 54.5396 8.22916 53.9644 8.25932ZM54.2644 47.8706H34.9069L34.875 44.3287H39.5381V40.2037H34.8394L34.8169 37.7662H39.5381V33.6412H34.7812L34.7588 31.2037H39.5381V27.0787H34.7438V24.6412H39.5381V20.5162H34.7438V18.0787H39.5381V13.9537H34.7438V10.2037H54.2644V47.8706Z" fill="#20744A"/>
<path d="M42.1641 13.9482H50.2697V18.0732H42.1641V13.9482ZM42.1641 20.5126H50.2697V24.6376H42.1641V20.5126ZM42.1641 27.077H50.2697V31.202H42.1641V27.077ZM42.1641 33.6414H50.2697V37.7664H42.1641V33.6414ZM42.1641 40.2057H50.2697V44.3307H42.1641V40.2057Z" fill="#20744A"/>
<path fill-rule="evenodd" clip-rule="evenodd" d="M11.8997 20.0123L15.9234 19.7817L18.4528 26.736L21.4416 19.4948L25.4653 19.2642L20.5791 29.1379L25.4653 39.036L21.2109 38.7492L18.3384 31.2042L15.4641 38.4623L11.5547 38.1173L16.0959 29.3742L11.8997 20.0123Z" fill="white"/>
</svg>
