<svg width="135" height="25" viewBox="0 0 135 25" fill="none" xmlns="http://www.w3.org/2000/svg">
<rect x="9" width="126" height="25" rx="5" fill="#8F9098"/>
<path d="M18.03 9.55C17.65 9.55 17.3067 9.61667 17 9.75C16.6933 9.87667 16.4333 10.0667 16.22 10.32C16.0067 10.5667 15.8433 10.87 15.73 11.23C15.6167 11.5833 15.56 11.9833 15.56 12.43C15.56 13.0167 15.65 13.5267 15.83 13.96C16.0167 14.3933 16.29 14.7267 16.65 14.96C17.0167 15.1933 17.4733 15.31 18.02 15.31C18.3333 15.31 18.63 15.2833 18.91 15.23C19.19 15.1767 19.4633 15.11 19.73 15.03V15.81C19.4633 15.91 19.1867 15.9833 18.9 16.03C18.62 16.0767 18.2833 16.1 17.89 16.1C17.1633 16.1 16.5567 15.95 16.07 15.65C15.5833 15.35 15.2167 14.9233 14.97 14.37C14.73 13.8167 14.61 13.1667 14.61 12.42C14.61 11.88 14.6833 11.3867 14.83 10.94C14.9833 10.4933 15.2033 10.1067 15.49 9.78C15.7833 9.45333 16.1433 9.20333 16.57 9.03C16.9967 8.85 17.4867 8.76 18.04 8.76C18.4067 8.76 18.76 8.79667 19.1 8.87C19.44 8.94333 19.7433 9.04667 20.01 9.18L19.65 9.94C19.43 9.84 19.1833 9.75 18.91 9.67C18.6433 9.59 18.35 9.55 18.03 9.55ZM25.8284 13.31C25.8284 13.7567 25.7684 14.1533 25.6484 14.5C25.535 14.84 25.3684 15.13 25.1484 15.37C24.935 15.61 24.6717 15.7933 24.3584 15.92C24.0517 16.04 23.7084 16.1 23.3284 16.1C22.975 16.1 22.6484 16.04 22.3484 15.92C22.0484 15.7933 21.7884 15.61 21.5684 15.37C21.3484 15.13 21.175 14.84 21.0484 14.5C20.9284 14.1533 20.8684 13.7567 20.8684 13.31C20.8684 12.7167 20.9684 12.2167 21.1684 11.81C21.3684 11.3967 21.655 11.0833 22.0284 10.87C22.4017 10.65 22.845 10.54 23.3584 10.54C23.845 10.54 24.2717 10.65 24.6384 10.87C25.0117 11.0833 25.3017 11.3967 25.5084 11.81C25.7217 12.2167 25.8284 12.7167 25.8284 13.31ZM21.7784 13.31C21.7784 13.73 21.8317 14.0967 21.9384 14.41C22.0517 14.7167 22.225 14.9533 22.4584 15.12C22.6917 15.2867 22.9884 15.37 23.3484 15.37C23.7084 15.37 24.005 15.2867 24.2384 15.12C24.4717 14.9533 24.6417 14.7167 24.7484 14.41C24.8617 14.0967 24.9184 13.73 24.9184 13.31C24.9184 12.8833 24.8617 12.52 24.7484 12.22C24.635 11.92 24.4617 11.69 24.2284 11.53C24.0017 11.3633 23.705 11.28 23.3384 11.28C22.7917 11.28 22.395 11.46 22.1484 11.82C21.9017 12.18 21.7784 12.6767 21.7784 13.31ZM28.633 10.54C29.0397 10.54 29.393 10.5967 29.693 10.71C29.993 10.8167 30.2264 10.9767 30.393 11.19C30.5597 11.3967 30.643 11.65 30.643 11.95C30.643 12.2767 30.553 12.5367 30.373 12.73C30.193 12.9167 29.9464 13.0533 29.633 13.14V13.18C29.8464 13.24 30.043 13.3233 30.223 13.43C30.403 13.5367 30.5464 13.6767 30.653 13.85C30.7664 14.0233 30.823 14.2467 30.823 14.52C30.823 14.8133 30.7397 15.08 30.573 15.32C30.413 15.56 30.163 15.75 29.823 15.89C29.4897 16.03 29.0597 16.1 28.533 16.1C28.2797 16.1 28.0364 16.0867 27.803 16.06C27.5764 16.0333 27.3697 15.9933 27.183 15.94C27.003 15.8867 26.843 15.8233 26.703 15.75V14.96C26.9297 15.0667 27.1964 15.1633 27.503 15.25C27.8164 15.3367 28.1564 15.38 28.523 15.38C28.7897 15.38 29.0297 15.35 29.243 15.29C29.463 15.23 29.6364 15.1367 29.763 15.01C29.8897 14.8767 29.953 14.6967 29.953 14.47C29.953 14.2633 29.8964 14.0967 29.783 13.97C29.6697 13.8367 29.4997 13.7367 29.273 13.67C29.053 13.6033 28.7697 13.57 28.423 13.57H27.703V12.85H28.283C28.743 12.85 29.1097 12.79 29.383 12.67C29.663 12.5433 29.803 12.33 29.803 12.03C29.803 11.7767 29.6964 11.5867 29.483 11.46C29.2764 11.3333 28.9764 11.27 28.583 11.27C28.2897 11.27 28.0297 11.3 27.803 11.36C27.583 11.4133 27.3397 11.4967 27.073 11.61L26.763 10.91C27.0497 10.7833 27.3497 10.69 27.663 10.63C27.9764 10.57 28.2997 10.54 28.633 10.54ZM36.1054 10.64V15.26H36.8854V17.86H36.0354V16H32.3054V17.86H31.4654V15.26H31.8954C32.2021 14.8333 32.4554 14.37 32.6554 13.87C32.8621 13.3633 33.0154 12.8367 33.1154 12.29C33.2221 11.7367 33.2787 11.1867 33.2854 10.64H36.1054ZM34.0654 11.33C34.0387 11.7833 33.9687 12.2533 33.8554 12.74C33.7421 13.22 33.5954 13.68 33.4154 14.12C33.2421 14.56 33.0387 14.94 32.8054 15.26H35.2554V11.33H34.0654ZM39.9659 10.55C40.6193 10.55 41.1026 10.6933 41.4159 10.98C41.7293 11.2667 41.8859 11.7233 41.8859 12.35V16H41.2459L41.0759 15.24H41.0359C40.8826 15.4333 40.7226 15.5967 40.5559 15.73C40.3959 15.8567 40.2093 15.95 39.9959 16.01C39.7893 16.07 39.5359 16.1 39.2359 16.1C38.9159 16.1 38.6259 16.0433 38.3659 15.93C38.1126 15.8167 37.9126 15.6433 37.7659 15.41C37.6193 15.17 37.5459 14.87 37.5459 14.51C37.5459 13.9767 37.7559 13.5667 38.1759 13.28C38.5959 12.9867 39.2426 12.8267 40.1159 12.8L41.0259 12.77V12.45C41.0259 12.0033 40.9293 11.6933 40.7359 11.52C40.5426 11.3467 40.2693 11.26 39.9159 11.26C39.6359 11.26 39.3693 11.3033 39.1159 11.39C38.8626 11.47 38.6259 11.5633 38.4059 11.67L38.1359 11.01C38.3693 10.8833 38.6459 10.7767 38.9659 10.69C39.2859 10.5967 39.6193 10.55 39.9659 10.55ZM40.2259 13.41C39.5593 13.4367 39.0959 13.5433 38.8359 13.73C38.5826 13.9167 38.4559 14.18 38.4559 14.52C38.4559 14.82 38.5459 15.04 38.7259 15.18C38.9126 15.32 39.1493 15.39 39.4359 15.39C39.8893 15.39 40.2659 15.2667 40.5659 15.02C40.8659 14.7667 41.0159 14.38 41.0159 13.86V13.38L40.2259 13.41ZM47.2414 11.38H45.4914V16H44.6214V11.38H42.8914V10.64H47.2414V11.38ZM50.7673 12.84C51.2339 12.84 51.6206 12.8967 51.9273 13.01C52.2339 13.1233 52.4639 13.2933 52.6173 13.52C52.7773 13.74 52.8573 14.02 52.8573 14.36C52.8573 14.6933 52.7806 14.9833 52.6273 15.23C52.4806 15.4767 52.2506 15.6667 51.9373 15.8C51.6239 15.9333 51.2206 16 50.7273 16H48.2973V10.64H49.1773V12.84H50.7673ZM51.9773 14.41C51.9773 14.0833 51.8606 13.8633 51.6273 13.75C51.4006 13.63 51.0806 13.57 50.6673 13.57H49.1773V15.29H50.6873C51.0606 15.29 51.3673 15.2233 51.6073 15.09C51.8539 14.9567 51.9773 14.73 51.9773 14.41ZM56.0608 10.64H57.0008L58.1608 13.69C58.2274 13.87 58.2874 14.0433 58.3408 14.21C58.4008 14.3767 58.4541 14.54 58.5008 14.7C58.5474 14.8533 58.5841 15.0033 58.6108 15.15H58.6508C58.6908 14.9833 58.7541 14.7667 58.8408 14.5C58.9274 14.2267 59.0174 13.9533 59.1108 13.68L60.2008 10.64H61.1508L58.8408 16.74C58.7141 17.0733 58.5641 17.3633 58.3908 17.61C58.2241 17.8633 58.0174 18.0567 57.7708 18.19C57.5308 18.33 57.2374 18.4 56.8908 18.4C56.7308 18.4 56.5908 18.39 56.4708 18.37C56.3508 18.3567 56.2474 18.34 56.1608 18.32V17.62C56.2341 17.6333 56.3208 17.6467 56.4208 17.66C56.5274 17.6733 56.6374 17.68 56.7508 17.68C56.9574 17.68 57.1341 17.64 57.2808 17.56C57.4341 17.4867 57.5641 17.3767 57.6708 17.23C57.7774 17.09 57.8674 16.9233 57.9408 16.73L58.2208 16.02L56.0608 10.64ZM66.5284 10.64V16H65.6484V11.39H62.8784V16H61.9984V10.64H66.5284ZM70.7887 10.54C71.4487 10.54 71.9787 10.77 72.3787 11.23C72.7853 11.69 72.9887 12.3833 72.9887 13.31C72.9887 13.9167 72.8953 14.43 72.7087 14.85C72.5287 15.2633 72.272 15.5767 71.9387 15.79C71.612 15.9967 71.2253 16.1 70.7787 16.1C70.5053 16.1 70.262 16.0633 70.0487 15.99C69.8353 15.9167 69.652 15.8233 69.4987 15.71C69.352 15.59 69.2253 15.46 69.1187 15.32H69.0587C69.072 15.4333 69.0853 15.5767 69.0987 15.75C69.112 15.9233 69.1187 16.0733 69.1187 16.2V18.4H68.2387V10.64H68.9587L69.0787 11.37H69.1187C69.2253 11.2167 69.352 11.0767 69.4987 10.95C69.652 10.8233 69.832 10.7233 70.0387 10.65C70.252 10.5767 70.502 10.54 70.7887 10.54ZM70.6287 11.28C70.2687 11.28 69.9787 11.35 69.7587 11.49C69.5387 11.6233 69.3787 11.8267 69.2787 12.1C69.1787 12.3733 69.1253 12.72 69.1187 13.14V13.31C69.1187 13.75 69.1653 14.1233 69.2587 14.43C69.352 14.7367 69.5087 14.97 69.7287 15.13C69.9553 15.29 70.262 15.37 70.6487 15.37C70.9753 15.37 71.242 15.28 71.4487 15.1C71.662 14.92 71.8187 14.6767 71.9187 14.37C72.0253 14.0567 72.0787 13.7 72.0787 13.3C72.0787 12.6867 71.9587 12.1967 71.7187 11.83C71.4853 11.4633 71.122 11.28 70.6287 11.28ZM76.421 10.55C77.0743 10.55 77.5577 10.6933 77.871 10.98C78.1843 11.2667 78.341 11.7233 78.341 12.35V16H77.701L77.531 15.24H77.491C77.3377 15.4333 77.1777 15.5967 77.011 15.73C76.851 15.8567 76.6643 15.95 76.451 16.01C76.2443 16.07 75.991 16.1 75.691 16.1C75.371 16.1 75.081 16.0433 74.821 15.93C74.5677 15.8167 74.3677 15.6433 74.221 15.41C74.0743 15.17 74.001 14.87 74.001 14.51C74.001 13.9767 74.211 13.5667 74.631 13.28C75.051 12.9867 75.6977 12.8267 76.571 12.8L77.481 12.77V12.45C77.481 12.0033 77.3843 11.6933 77.191 11.52C76.9977 11.3467 76.7243 11.26 76.371 11.26C76.091 11.26 75.8243 11.3033 75.571 11.39C75.3177 11.47 75.081 11.5633 74.861 11.67L74.591 11.01C74.8243 10.8833 75.101 10.7767 75.421 10.69C75.741 10.5967 76.0743 10.55 76.421 10.55ZM76.681 13.41C76.0143 13.4367 75.551 13.5433 75.291 13.73C75.0377 13.9167 74.911 14.18 74.911 14.52C74.911 14.82 75.001 15.04 75.181 15.18C75.3677 15.32 75.6043 15.39 75.891 15.39C76.3443 15.39 76.721 15.2667 77.021 15.02C77.321 14.7667 77.471 14.38 77.471 13.86V13.38L76.681 13.41ZM84.3065 11.99C84.3065 12.3233 84.2065 12.5833 84.0065 12.77C83.8065 12.9567 83.5498 13.0833 83.2365 13.15V13.19C83.5698 13.2367 83.8598 13.3567 84.1065 13.55C84.3532 13.7367 84.4765 14.03 84.4765 14.43C84.4765 14.6567 84.4332 14.8667 84.3465 15.06C84.2665 15.2533 84.1398 15.42 83.9665 15.56C83.7932 15.7 83.5698 15.81 83.2965 15.89C83.0232 15.9633 82.6932 16 82.3065 16H79.9965V10.64H82.2965C82.6765 10.64 83.0165 10.6833 83.3165 10.77C83.6232 10.85 83.8632 10.99 84.0365 11.19C84.2165 11.3833 84.3065 11.65 84.3065 11.99ZM83.5665 14.43C83.5665 14.1233 83.4498 13.9033 83.2165 13.77C82.9832 13.6367 82.6398 13.57 82.1865 13.57H80.8765V15.29H82.2065C82.6465 15.29 82.9832 15.2267 83.2165 15.1C83.4498 14.9667 83.5665 14.7433 83.5665 14.43ZM83.4165 12.1C83.4165 11.8467 83.3232 11.6633 83.1365 11.55C82.9565 11.43 82.6598 11.37 82.2465 11.37H80.8765V12.84H82.0865C82.5198 12.84 82.8498 12.78 83.0765 12.66C83.3032 12.54 83.4165 12.3533 83.4165 12.1ZM89.8382 16H88.9482V11.37H87.3682C87.3015 12.2167 87.2182 12.94 87.1182 13.54C87.0182 14.1333 86.8915 14.6167 86.7382 14.99C86.5849 15.3633 86.4015 15.6367 86.1882 15.81C85.9749 15.9833 85.7249 16.07 85.4382 16.07C85.3515 16.07 85.2649 16.0633 85.1782 16.05C85.0982 16.0433 85.0315 16.0267 84.9782 16V15.34C85.0182 15.3533 85.0615 15.3633 85.1082 15.37C85.1549 15.3767 85.2015 15.38 85.2482 15.38C85.3949 15.38 85.5282 15.32 85.6482 15.2C85.7682 15.08 85.8749 14.8967 85.9682 14.65C86.0682 14.4033 86.1582 14.0933 86.2382 13.72C86.3182 13.34 86.3882 12.8933 86.4482 12.38C86.5082 11.8667 86.5615 11.2867 86.6082 10.64H89.8382V16ZM91.8695 16H90.8495L92.3795 13.75C92.1728 13.6967 91.9728 13.6133 91.7795 13.5C91.5861 13.38 91.4295 13.2167 91.3095 13.01C91.1895 12.7967 91.1295 12.5333 91.1295 12.22C91.1295 11.7067 91.3028 11.3167 91.6495 11.05C91.9961 10.7767 92.4561 10.64 93.0295 10.64H95.4295V16H94.5495V13.87H93.2495L91.8695 16ZM91.9795 12.23C91.9795 12.5367 92.0928 12.7667 92.3195 12.92C92.5528 13.0667 92.8761 13.14 93.2895 13.14H94.5495V11.37H93.1195C92.7128 11.37 92.4195 11.45 92.2395 11.61C92.0661 11.77 91.9795 11.9767 91.9795 12.23ZM104.085 13.31C104.085 13.9033 103.989 14.41 103.795 14.83C103.602 15.2433 103.329 15.56 102.975 15.78C102.622 15.9933 102.202 16.1 101.715 16.1C101.262 16.1 100.865 16.0067 100.525 15.82C100.185 15.6267 99.9154 15.3467 99.7154 14.98C99.5154 14.6067 99.3987 14.15 99.3654 13.61H98.0054V16H97.1254V10.64H98.0054V12.87H99.3754C99.4221 12.3633 99.5454 11.94 99.7454 11.6C99.9521 11.2533 100.222 10.99 100.555 10.81C100.895 10.63 101.289 10.54 101.735 10.54C102.195 10.54 102.602 10.65 102.955 10.87C103.309 11.0833 103.585 11.3967 103.785 11.81C103.985 12.2167 104.085 12.7167 104.085 13.31ZM100.265 13.31C100.265 13.7567 100.315 14.1333 100.415 14.44C100.522 14.7467 100.682 14.98 100.895 15.14C101.109 15.2933 101.385 15.37 101.725 15.37C102.065 15.37 102.342 15.2933 102.555 15.14C102.769 14.98 102.925 14.7467 103.025 14.44C103.125 14.1333 103.175 13.7567 103.175 13.31C103.175 12.8633 103.125 12.49 103.025 12.19C102.925 11.89 102.769 11.6633 102.555 11.51C102.342 11.3567 102.065 11.28 101.725 11.28C101.385 11.28 101.109 11.3567 100.895 11.51C100.682 11.6633 100.522 11.89 100.415 12.19C100.315 12.49 100.265 12.8633 100.265 13.31ZM112.745 10.64V15.27H113.525V17.85H112.645V16H105.485V10.64H106.365V15.26H108.675V10.64H109.555V15.26H111.875V10.64H112.745ZM116.617 10.54C117.077 10.54 117.471 10.64 117.797 10.84C118.131 11.04 118.384 11.3233 118.557 11.69C118.737 12.05 118.827 12.4733 118.827 12.96V13.49H115.157C115.171 14.0967 115.324 14.56 115.617 14.88C115.917 15.1933 116.334 15.35 116.867 15.35C117.207 15.35 117.507 15.32 117.767 15.26C118.034 15.1933 118.307 15.1 118.587 14.98V15.75C118.314 15.87 118.044 15.9567 117.777 16.01C117.511 16.07 117.194 16.1 116.827 16.1C116.321 16.1 115.871 15.9967 115.477 15.79C115.091 15.5833 114.787 15.2767 114.567 14.87C114.354 14.4567 114.247 13.9533 114.247 13.36C114.247 12.7733 114.344 12.27 114.537 11.85C114.737 11.43 115.014 11.1067 115.367 10.88C115.727 10.6533 116.144 10.54 116.617 10.54ZM116.607 11.26C116.187 11.26 115.854 11.3967 115.607 11.67C115.367 11.9367 115.224 12.31 115.177 12.79H117.907C117.907 12.4833 117.861 12.2167 117.767 11.99C117.674 11.7633 117.531 11.5867 117.337 11.46C117.151 11.3267 116.907 11.26 116.607 11.26ZM123.462 10.64V11.38H121.072V16H120.192V10.64H123.462ZM129.08 13.31C129.08 13.7567 129.02 14.1533 128.9 14.5C128.787 14.84 128.62 15.13 128.4 15.37C128.187 15.61 127.924 15.7933 127.61 15.92C127.304 16.04 126.96 16.1 126.58 16.1C126.227 16.1 125.9 16.04 125.6 15.92C125.3 15.7933 125.04 15.61 124.82 15.37C124.6 15.13 124.427 14.84 124.3 14.5C124.18 14.1533 124.12 13.7567 124.12 13.31C124.12 12.7167 124.22 12.2167 124.42 11.81C124.62 11.3967 124.907 11.0833 125.28 10.87C125.654 10.65 126.097 10.54 126.61 10.54C127.097 10.54 127.524 10.65 127.89 10.87C128.264 11.0833 128.554 11.3967 128.76 11.81C128.974 12.2167 129.08 12.7167 129.08 13.31ZM125.03 13.31C125.03 13.73 125.084 14.0967 125.19 14.41C125.304 14.7167 125.477 14.9533 125.71 15.12C125.944 15.2867 126.24 15.37 126.6 15.37C126.96 15.37 127.257 15.2867 127.49 15.12C127.724 14.9533 127.894 14.7167 128 14.41C128.114 14.0967 128.17 13.73 128.17 13.31C128.17 12.8833 128.114 12.52 128 12.22C127.887 11.92 127.714 11.69 127.48 11.53C127.254 11.3633 126.957 11.28 126.59 11.28C126.044 11.28 125.647 11.46 125.4 11.82C125.154 12.18 125.03 12.6767 125.03 13.31Z" fill="white"/>
<path d="M0 12L10.5 5.93782V18.0622L0 12Z" fill="#8F9098"/>
</svg>
